<svg width="65" height="77" viewBox="0 0 65 77" fill="none" xmlns="http://www.w3.org/2000/svg">
<path d="M2.112 37.792C2.112 33.6107 3.136 29.7493 5.184 26.208C7.27467 22.6667 10.0907 19.872 13.632 17.824C17.1733 15.7333 21.0347 14.688 25.216 14.688C29.5253 14.688 33.4933 15.7973 37.12 18.016C40.7467 20.192 43.5413 23.1147 45.504 26.784L35.904 31.904C34.8373 30.0267 33.344 28.512 31.424 27.36C29.5467 26.1653 27.4773 25.568 25.216 25.568C22.9973 25.568 20.9493 26.1227 19.072 27.232C17.2373 28.3413 15.7653 29.8347 14.656 31.712C13.5467 33.5467 12.992 35.5733 12.992 37.792C12.992 40.0107 13.5467 42.0587 14.656 43.936C15.7653 45.7707 17.2373 47.2427 19.072 48.352C20.9493 49.4187 22.9973 49.952 25.216 49.952C27.52 49.952 29.632 49.3547 31.552 48.16C33.5147 46.9653 34.9867 45.3653 35.968 43.36L45.632 48.608C43.6693 52.32 40.8533 55.3067 37.184 57.568C33.5147 59.7867 29.5253 60.896 25.216 60.896C21.0347 60.896 17.1733 59.872 13.632 57.824C10.0907 55.7333 7.27467 52.9173 5.184 49.376C3.136 45.8347 2.112 41.9733 2.112 37.792Z" fill="#08171F"/>
<circle cx="57" cy="52" r="8" fill="white"/>
<circle cx="57" cy="52" r="6" fill="#F43F5E"/>
<circle cx="9" cy="22" r="8" fill="white"/>
<circle cx="9" cy="22" r="6" fill="#103CCB"/>
</svg>
